<svg xmlns="http://www.w3.org/2000/svg" version="1.1" xmlns:xlink="http://www.w3.org/1999/xlink" xmlns:svgjs="http://svgjs.dev/svgjs" width="2000" height="1247" viewBox="0 0 2000 1247"><g transform="matrix(1,0,0,1,-1.2121212121212466,0.504858299595071)"><svg viewBox="0 0 396 247" data-background-color="#ffffff" preserveAspectRatio="xMidYMid meet" height="1247" width="2000" xmlns="http://www.w3.org/2000/svg" xmlns:xlink="http://www.w3.org/1999/xlink"><g id="tight-bounds" transform="matrix(1,0,0,1,0.2400000000000091,-0.09999999999999432)"><svg viewBox="0 0 395.52 247.2" height="247.2" width="395.52"><g><svg></svg></g><g><svg viewBox="0 0 395.52 247.2" height="247.2" width="395.52"><g transform="matrix(1,0,0,1,102.22457110500523,47.215199999999996)"><svg viewBox="0 0 191.07085778998953 152.7696" height="152.7696" width="191.07085778998953"><g><svg viewBox="0 0 244.43135999999996 195.4336811304794" height="152.7696" width="191.07085778998953"><g><svg viewBox="0 0 244.43135999999996 195.4336811304794" height="195.4336811304794" width="244.43135999999996"><g id="textblocktransform"><svg viewBox="0 0 244.43135999999996 195.4336811304794" height="195.4336811304794" width="244.43135999999996" id="textblock"><g><svg viewBox="0 0 244.43135999999996 147.51814499999998" height="147.51814499999998" width="244.43135999999996"><g transform="matrix(1,0,0,1,0,0)"><svg width="244.43135999999996" viewBox="-1.22 -29.3 50 30.18" height="147.51814499999998" data-palette-color="#8c3dd0"><g class="wordmark-text-0" data-fill-palette-color="primary" id="text-0"><path d="M12.21-28.03L16.11-28.03 16.11-29.3 3.61-29.3 3.61-28.03 8.01-28.03 8.01-7.91Q8.01-1.9 6.49-0.73L6.49-0.73Q5.91-0.34 5.18-0.34L5.18-0.34Q3.86-0.34 3.42-1.86L3.42-1.86Q2.88-3.56 2.69-3.86L2.69-3.86Q2.1-4.64 0.93-4.64L0.93-4.64Q-0.59-4.64-1.07-3.22L-1.07-3.22Q-1.22-2.83-1.22-2.49L-1.22-2.49Q-1.22-0.54 1.32 0.39L1.32 0.39Q2.69 0.88 4.35 0.88L4.35 0.88Q8.54 0.88 10.69-2.44L10.69-2.44Q12.21-4.83 12.21-8.4L12.21-8.4 12.21-28.03ZM19.77 0L31.74 0Q31.74-1.07 30.95-1.22L30.95-1.22Q30.71-1.27 30.47-1.27L30.47-1.27 27.88-1.27 27.88-12.65 30.42-15.04 41.99 0 48.78 0Q48.78-1.07 48-1.22L48-1.22Q47.75-1.27 47.51-1.27L47.51-1.27 46.19-1.27 33.44-17.87 42.14-25.98Q43.94-27.69 44.87-27.93L44.87-27.93Q45.31-28.03 45.8-28.03L45.8-28.03Q46.87-28.03 47.02-28.81L47.02-28.81Q47.07-29.05 47.07-29.3L47.07-29.3 38.28-29.3 38.28-28.03 42.19-28.03 27.88-14.84 27.88-28.03 31.74-28.03 31.74-29.3 19.77-29.3 19.77-28.03 23.68-28.03 23.68-1.27 19.77-1.27 19.77 0Z" fill="#8c3dd0" data-fill-palette-color="primary"></path></g></svg></g></svg></g><g transform="matrix(1,0,0,1,0,182.34363859901998)"><svg viewBox="0 0 143.50565145599995 13.090042531459453" height="13.090042531459453" width="143.50565145599995"><g transform="matrix(1,0,0,1,0,0)"><svg width="143.50565145599995" viewBox="0 -37.6 532.75 48.6" height="13.090042531459453" data-palette-color="#7665a8"><path d="M7.7 0.6L7.7 0.6Q5.4 0.6 3.38-0.2 1.35-1 0-2.3L0-2.3 2.3-5.95Q3.3-4.9 4.7-4.2 6.1-3.5 7.55-3.5L7.55-3.5Q9.95-3.5 11.35-5.23 12.75-6.95 12.75-11.05L12.75-11.05 12.75-35 17.5-35 17.5-11.55Q17.5-5.2 14.8-2.3 12.1 0.6 7.7 0.6ZM30 0L25.5 0 25.5-26 29.85-26 29.85-20.35Q30.5-22 31.6-23.43 32.7-24.85 34.35-25.73 36-26.6 38.2-26.6L38.2-26.6Q38.95-26.6 39.7-26.53 40.45-26.45 40.95-26.3L40.95-26.3 39.6-21.65Q38.65-22.05 37.35-22.05L37.35-22.05Q35.5-22.05 33.82-21 32.15-19.95 31.07-17.75 30-15.55 30-12.15L30-12.15 30 0ZM43.95 0.6L43.95 0.6Q42.6 0.6 41.6-0.4 40.6-1.4 40.6-2.75L40.6-2.75Q40.6-4.3 41.5-5.2 42.4-6.1 43.95-6.1L43.95-6.1Q45.25-6.1 46.27-5.1 47.3-4.1 47.3-2.75L47.3-2.75Q47.3-1.25 46.35-0.33 45.4 0.6 43.95 0.6ZM79.64 0.6L79.64 0.6Q75.99 0.6 72.99-0.38 69.99-1.35 67.94-2.95L67.94-2.95 70.34-6.95Q72.14-5.45 74.39-4.5 76.64-3.55 79.64-3.55L79.64-3.55Q83.24-3.55 85.34-5.05 87.44-6.55 87.44-9.1L87.44-9.1Q87.44-10.55 86.84-11.68 86.24-12.8 84.52-13.88 82.79-14.95 79.44-16.2L79.44-16.2Q75.84-17.6 73.69-19.03 71.54-20.45 70.62-22.28 69.69-24.1 69.69-26.6L69.69-26.6Q69.69-29.1 71.07-31.13 72.44-33.15 75.12-34.38 77.79-35.6 81.59-35.6L81.59-35.6Q84.69-35.6 87.17-34.98 89.64-34.35 91.99-33.2L91.99-33.2 90.24-29.15Q88.54-30.15 86.27-30.83 83.99-31.5 81.49-31.5L81.49-31.5Q78.19-31.5 76.29-30.2 74.39-28.9 74.39-26.85L74.39-26.85Q74.39-25.55 74.94-24.55 75.49-23.55 77.12-22.6 78.74-21.65 81.99-20.45L81.99-20.45Q85.89-19 88.17-17.4 90.44-15.8 91.39-13.93 92.34-12.05 92.34-9.65L92.34-9.65Q92.34-6.4 90.72-4.1 89.09-1.8 86.22-0.6 83.34 0.6 79.64 0.6ZM109.79 0.6L109.79 0.6Q106.09 0.6 103.14-1.13 100.19-2.85 98.51-5.93 96.84-9 96.84-13L96.84-13Q96.84-17.2 98.54-20.25 100.24-23.3 103.19-24.95 106.14-26.6 109.79-26.6L109.79-26.6Q113.44-26.6 116.36-24.95 119.29-23.3 121.01-20.28 122.74-17.25 122.74-13.1L122.74-13.1Q122.74-8.95 121.04-5.88 119.34-2.8 116.41-1.1 113.49 0.6 109.79 0.6ZM109.79-3.4L109.79-3.4Q113.74-3.4 115.94-6.08 118.14-8.75 118.14-13L118.14-13Q118.14-15.6 117.04-17.78 115.94-19.95 114.06-21.28 112.19-22.6 109.79-22.6L109.79-22.6Q105.84-22.6 103.64-20 101.44-17.4 101.44-13.1L101.44-13.1Q101.44-10.5 102.54-8.28 103.64-6.05 105.51-4.73 107.39-3.4 109.79-3.4ZM133.74 0L129.24 0 129.24-21.15 125.24-21.15 125.24-25.05 129.24-25.05 129.24-28.1Q129.24-32.5 131.69-35.05 134.14-37.6 138.09-37.6L138.09-37.6Q140.14-37.6 141.69-37.13 143.24-36.65 144.64-35.95L144.64-35.95 143.29-32.15Q142.24-32.7 141.04-33.15 139.84-33.6 138.39-33.6L138.39-33.6Q136.29-33.6 135.01-32.27 133.74-30.95 133.74-28.4L133.74-28.4 133.74-25.05 141.44-25.05 141.44-21.15 133.74-21.15 133.74 0ZM157.48 0.6L157.48 0.6Q153.73 0.6 151.56-1.88 149.38-4.35 149.38-8.95L149.38-8.95 149.38-21.15 144.88-21.15 144.88-25.05 149.48-25.05 150.43-33.25 153.88-33.25 153.88-25.05 161.08-25.05 161.08-21.15 153.88-21.15 153.88-8.6Q153.88-5.7 155.11-4.55 156.33-3.4 158.03-3.4L158.03-3.4Q159.28-3.4 160.41-3.8 161.53-4.2 162.48-4.75L162.48-4.75 163.73-1.15Q162.73-0.55 161.03 0.03 159.33 0.6 157.48 0.6ZM178.38 0L173.43 0 165.23-24.8 169.38-26.25 176.08-5.1 182.18-24.15 187.03-24.15 192.98-5.1 199.63-26.25 203.63-24.8 195.38 0 190.43 0 184.43-19.35 178.38 0ZM218.33 0.6L218.33 0.6Q215.08 0.6 212.43-1.05 209.78-2.7 208.2-5.73 206.63-8.75 206.63-12.85L206.63-12.85Q206.63-16.75 208.2-19.85 209.78-22.95 212.55-24.78 215.33-26.6 218.93-26.6L218.93-26.6Q221.18-26.6 223-25.83 224.83-25.05 226.18-23.9L226.18-23.9 226.18-26 230.28-26 230.28-6.3Q230.28-4.4 231.2-3.83 232.13-3.25 233.23-3.25L233.23-3.25 232.28 0.25Q227.48 0.25 226.48-3.65L226.48-3.65Q225.33-2.05 223.35-0.73 221.38 0.6 218.33 0.6ZM219.33-3.4L219.33-3.4Q221.23-3.4 222.93-4.33 224.63-5.25 225.78-6.65L225.78-6.65 225.78-20.6Q224.43-21.55 222.8-22.13 221.18-22.7 219.38-22.7L219.38-22.7Q216.98-22.7 215.15-21.48 213.33-20.25 212.28-18.07 211.23-15.9 211.23-13L211.23-13Q211.23-10.2 212.28-8.03 213.33-5.85 215.18-4.63 217.03-3.4 219.33-3.4ZM243.73 0L239.23 0 239.23-26 243.58-26 243.58-20.35Q244.23-22 245.33-23.43 246.43-24.85 248.08-25.73 249.73-26.6 251.93-26.6L251.93-26.6Q252.68-26.6 253.43-26.53 254.18-26.45 254.68-26.3L254.68-26.3 253.33-21.65Q252.38-22.05 251.08-22.05L251.08-22.05Q249.23-22.05 247.55-21 245.88-19.95 244.8-17.75 243.73-15.55 243.73-12.15L243.73-12.15 243.73 0ZM268.07 0.6L268.07 0.6Q262.47 0.6 259.2-2.98 255.92-6.55 255.92-13L255.92-13Q255.92-16.9 257.4-19.98 258.87-23.05 261.52-24.83 264.17-26.6 267.67-26.6L267.67-26.6Q271.42-26.6 273.9-24.98 276.37-23.35 277.62-20.6 278.87-17.85 278.87-14.55L278.87-14.55Q278.87-12.8 278.72-11.15L278.72-11.15 260.52-11.15Q260.97-7.5 263.07-5.45 265.17-3.4 268.62-3.4L268.62-3.4Q270.87-3.4 272.67-3.88 274.47-4.35 276.12-5.1L276.12-5.1 277.17-1.25Q275.37-0.45 273.12 0.08 270.87 0.6 268.07 0.6ZM260.47-14.8L260.47-14.8 274.72-14.8Q274.72-18.6 272.82-20.65 270.92-22.7 267.57-22.7L267.57-22.7Q264.67-22.7 262.77-20.68 260.87-18.65 260.47-14.8ZM309.57 0.4L309.57 0.4Q306.72 0.4 304.59 0.25 302.47 0.1 300.37-0.1L300.37-0.1 300.37-34.9Q302.72-35.15 304.97-35.27 307.22-35.4 310.12-35.4L310.12-35.4Q314.62-35.4 317.89-34 321.17-32.6 323.29-30.15 325.42-27.7 326.44-24.48 327.47-21.25 327.47-17.55L327.47-17.55Q327.47-13.9 326.42-10.65 325.37-7.4 323.19-4.93 321.02-2.45 317.64-1.03 314.27 0.4 309.57 0.4ZM309.72-3.75L309.72-3.75Q314.22-3.75 317.07-5.5 319.92-7.25 321.27-10.38 322.62-13.5 322.62-17.55L322.62-17.55Q322.62-21.15 321.27-24.3 319.92-27.45 317.12-29.38 314.32-31.3 309.97-31.3L309.97-31.3Q308.52-31.3 307.32-31.23 306.12-31.15 305.12-31.05L305.12-31.05 305.12-4Q306.17-3.85 307.32-3.8 308.47-3.75 309.72-3.75ZM344.37 0.6L344.37 0.6Q338.77 0.6 335.49-2.98 332.22-6.55 332.22-13L332.22-13Q332.22-16.9 333.69-19.98 335.17-23.05 337.82-24.83 340.47-26.6 343.97-26.6L343.97-26.6Q347.72-26.6 350.19-24.98 352.67-23.35 353.92-20.6 355.17-17.85 355.17-14.55L355.17-14.55Q355.17-12.8 355.02-11.15L355.02-11.15 336.82-11.15Q337.27-7.5 339.37-5.45 341.47-3.4 344.92-3.4L344.92-3.4Q347.17-3.4 348.97-3.88 350.77-4.35 352.42-5.1L352.42-5.1 353.47-1.25Q351.67-0.45 349.42 0.08 347.17 0.6 344.37 0.6ZM336.77-14.8L336.77-14.8 351.02-14.8Q351.02-18.6 349.12-20.65 347.22-22.7 343.87-22.7L343.87-22.7Q340.97-22.7 339.07-20.68 337.17-18.65 336.77-14.8ZM372.81 0L368.11 0 357.66-24.8 361.76-26.5 370.61-5.1 379.46-26.5 383.31-24.8 372.81 0ZM397.21 0.6L397.21 0.6Q391.61 0.6 388.33-2.98 385.06-6.55 385.06-13L385.06-13Q385.06-16.9 386.54-19.98 388.01-23.05 390.66-24.83 393.31-26.6 396.81-26.6L396.81-26.6Q400.56-26.6 403.04-24.98 405.51-23.35 406.76-20.6 408.01-17.85 408.01-14.55L408.01-14.55Q408.01-12.8 407.86-11.15L407.86-11.15 389.66-11.15Q390.11-7.5 392.21-5.45 394.31-3.4 397.76-3.4L397.76-3.4Q400.01-3.4 401.81-3.88 403.61-4.35 405.26-5.1L405.26-5.1 406.31-1.25Q404.51-0.45 402.26 0.08 400.01 0.6 397.21 0.6ZM389.61-14.8L389.61-14.8 403.86-14.8Q403.86-18.6 401.96-20.65 400.06-22.7 396.71-22.7L396.71-22.7Q393.81-22.7 391.91-20.68 390.01-18.65 389.61-14.8ZM421.91 0.6L421.91 0.6Q419.61 0.6 417.76-0.28 415.91-1.15 414.83-3.1 413.76-5.05 413.76-8.15L413.76-8.15 413.76-37 418.26-37 418.26-8.6Q418.26-5.9 419.38-4.6 420.51-3.3 422.51-3.3L422.51-3.3Q423.46-3.3 424.38-3.53 425.31-3.75 425.96-4.05L425.96-4.05 427.06-0.4Q426.16 0 424.83 0.3 423.51 0.6 421.91 0.6ZM441.5 0.6L441.5 0.6Q437.81 0.6 434.86-1.13 431.91-2.85 430.23-5.93 428.56-9 428.56-13L428.56-13Q428.56-17.2 430.25-20.25 431.95-23.3 434.91-24.95 437.86-26.6 441.5-26.6L441.5-26.6Q445.16-26.6 448.08-24.95 451-23.3 452.73-20.28 454.45-17.25 454.45-13.1L454.45-13.1Q454.45-8.95 452.75-5.88 451.06-2.8 448.13-1.1 445.2 0.6 441.5 0.6ZM441.5-3.4L441.5-3.4Q445.45-3.4 447.66-6.08 449.86-8.75 449.86-13L449.86-13Q449.86-15.6 448.75-17.78 447.66-19.95 445.78-21.28 443.91-22.6 441.5-22.6L441.5-22.6Q437.56-22.6 435.36-20 433.16-17.4 433.16-13.1L433.16-13.1Q433.16-10.5 434.25-8.28 435.36-6.05 437.23-4.73 439.11-3.4 441.5-3.4ZM464.9 11L460.4 11 460.4-19.35Q460.4-21.05 459.58-21.78 458.75-22.5 457.45-22.5L457.45-22.5 458.4-26Q463-26 464.15-22.35L464.15-22.35Q464.65-23.1 465.78-24.1 466.9-25.1 468.58-25.85 470.25-26.6 472.4-26.6L472.4-26.6Q475.4-26.6 478.03-25.03 480.65-23.45 482.25-20.48 483.85-17.5 483.85-13.25L483.85-13.25Q483.85-9.1 482.25-5.98 480.65-2.85 478.08-1.13 475.5 0.6 472.5 0.6L472.5 0.6Q470.2 0.6 468.2-0.33 466.2-1.25 464.9-2.45L464.9-2.45 464.9 11ZM471.6-3.4L471.6-3.4Q475-3.4 477.13-6.08 479.25-8.75 479.25-13.1L479.25-13.1Q479.25-16.1 478.18-18.25 477.1-20.4 475.33-21.55 473.55-22.7 471.4-22.7L471.4-22.7Q469.25-22.7 467.53-21.63 465.8-20.55 464.9-19.3L464.9-19.3 464.9-6.5Q466.2-5.15 467.9-4.28 469.6-3.4 471.6-3.4ZM500.5 0.6L500.5 0.6Q494.9 0.6 491.62-2.98 488.35-6.55 488.35-13L488.35-13Q488.35-16.9 489.82-19.98 491.3-23.05 493.95-24.83 496.6-26.6 500.1-26.6L500.1-26.6Q503.85-26.6 506.32-24.98 508.8-23.35 510.05-20.6 511.3-17.85 511.3-14.55L511.3-14.55Q511.3-12.8 511.15-11.15L511.15-11.15 492.95-11.15Q493.4-7.5 495.5-5.45 497.6-3.4 501.05-3.4L501.05-3.4Q503.3-3.4 505.1-3.88 506.9-4.35 508.55-5.1L508.55-5.1 509.6-1.25Q507.8-0.45 505.55 0.08 503.3 0.6 500.5 0.6ZM492.9-14.8L492.9-14.8 507.15-14.8Q507.15-18.6 505.25-20.65 503.35-22.7 500-22.7L500-22.7Q497.1-22.7 495.2-20.68 493.3-18.65 492.9-14.8ZM521.8 0L517.3 0 517.3-26 521.65-26 521.65-20.35Q522.3-22 523.4-23.43 524.5-24.85 526.15-25.73 527.8-26.6 530-26.6L530-26.6Q530.75-26.6 531.5-26.53 532.25-26.45 532.75-26.3L532.75-26.3 531.4-21.65Q530.45-22.05 529.15-22.05L529.15-22.05Q527.3-22.05 525.62-21 523.95-19.95 522.87-17.75 521.8-15.55 521.8-12.15L521.8-12.15 521.8 0Z" opacity="1" transform="matrix(1,0,0,1,0,0)" fill="#7665a8" class="slogan-text-1" data-fill-palette-color="secondary" id="text-1"></path></svg></g></svg></g></svg></g></svg></g></svg></g></svg></g><g><path d="M0 123.6c0-68.262 55.338-123.6 123.6-123.6 32.79 0 62.597 12.768 84.721 33.604l-7.78 0c-20.694-17.709-47.568-28.404-76.941-28.404-65.391 0-118.4 53.01-118.4 118.4 0 65.391 53.01 118.4 118.4 118.4 29.372 0 56.247-10.695 76.941-28.404h7.78c-22.125 20.836-51.932 33.604-84.721 33.604-68.262 0-123.6-55.338-123.6-123.6z" fill="#77cdd4" stroke="transparent" data-fill-palette-color="tertiary"></path></g></svg></g><defs></defs></svg><rect width="395.52" height="247.2" fill="none" stroke="none" visibility="hidden"></rect></g></svg></g></svg>